<svg xmlns="http://www.w3.org/2000/svg" viewBox="0 0 1397 306" width="1397" height="306" role="img" aria-label="Antiblaze logo">
  <title>Antiblaze logo</title>
  <path d="M 1022 115 L 1023 162 L 1075 163 L 1020 286 L 1020 291 L 1160 291 L 1160 246 L 1104 245 L 1159 121 L 1159 115 Z M 502 115 L 502 291 L 503 292 L 511 292 L 512 291 L 521 291 L 522 292 L 525 291 L 566 291 L 566 116 L 565 115 Z M 871 119 L 861 129 L 852 146 L 848 159 L 844 184 L 844 220 L 846 236 L 853 262 L 861 277 L 878 292 L 895 297 L 910 296 L 922 291 L 934 281 L 941 270 L 943 291 L 1003 291 L 1003 115 L 945 115 L 943 133 L 941 135 L 926 118 L 909 110 L 886 111 Z M 924 164 L 931 164 L 938 170 L 940 175 L 940 178 L 941 179 L 941 188 L 942 189 L 942 212 L 941 213 L 941 221 L 940 222 L 939 230 L 934 240 L 928 244 L 921 243 L 916 238 L 913 232 L 913 229 L 911 224 L 911 217 L 910 216 L 910 195 L 911 194 L 911 186 L 912 185 L 912 181 L 913 180 L 914 175 L 918 168 Z M 354 120 L 345 114 L 332 110 L 309 111 L 292 119 L 281 129 L 275 138 L 271 115 L 214 115 L 214 291 L 277 291 L 278 173 L 283 165 L 289 162 L 297 162 L 303 166 L 306 176 L 306 291 L 368 292 L 368 147 L 362 129 Z M 1234 110 L 1219 114 L 1202 123 L 1187 138 L 1182 146 L 1173 168 L 1170 183 L 1169 214 L 1171 232 L 1175 247 L 1185 267 L 1198 281 L 1208 288 L 1219 293 L 1235 297 L 1271 296 L 1290 289 L 1309 274 L 1321 254 L 1326 236 L 1267 236 L 1264 245 L 1258 251 L 1249 253 L 1241 249 L 1236 241 L 1233 219 L 1237 217 L 1326 218 L 1327 191 L 1325 177 L 1319 155 L 1312 141 L 1295 123 L 1281 115 L 1264 110 Z M 1244 159 L 1249 158 L 1250 157 L 1251 158 L 1256 159 L 1260 163 L 1263 170 L 1263 175 L 1264 176 L 1264 186 L 1263 187 L 1235 187 L 1234 186 L 1234 178 L 1235 177 L 1235 173 L 1236 172 L 1237 167 Z M 403 57 L 402 114 L 381 115 L 381 162 L 402 163 L 402 291 L 466 292 L 466 163 L 488 162 L 488 115 L 468 115 L 466 112 L 466 57 Z M 65 33 L 8 291 L 75 291 L 82 252 L 126 251 L 135 254 L 142 292 L 208 292 L 151 33 Z M 108 104 L 110 109 L 110 114 L 111 115 L 113 132 L 114 133 L 114 137 L 115 138 L 115 143 L 116 144 L 116 149 L 117 150 L 117 155 L 118 156 L 120 173 L 121 174 L 122 184 L 123 185 L 123 190 L 124 191 L 124 195 L 125 196 L 125 200 L 124 201 L 92 201 L 91 200 L 92 190 L 93 189 L 93 184 L 94 183 L 95 173 L 96 172 L 96 166 L 97 165 L 97 161 L 98 160 L 98 154 L 99 153 L 100 143 L 101 142 L 101 137 L 102 136 L 102 132 L 103 131 L 103 125 L 104 124 L 104 119 L 105 118 L 106 106 Z M 592 25 L 592 291 L 653 291 L 655 271 L 668 287 L 679 294 L 698 297 L 713 293 L 721 288 L 733 275 L 740 261 L 747 235 L 749 187 L 746 163 L 739 141 L 732 128 L 722 118 L 705 110 L 688 110 L 675 115 L 663 125 L 656 136 L 655 25 Z M 671 165 L 677 169 L 680 174 L 680 176 L 682 180 L 682 184 L 683 185 L 683 194 L 684 195 L 684 211 L 683 212 L 682 227 L 679 235 L 673 241 L 667 243 L 666 242 L 661 241 L 658 238 L 655 232 L 655 229 L 654 228 L 654 221 L 653 220 L 653 197 L 654 196 L 655 182 L 660 170 L 664 166 Z M 826 24 L 764 25 L 764 291 L 765 292 L 766 291 L 827 292 L 828 31 Z M 524 14 L 523 15 L 520 15 L 512 19 L 508 22 L 500 31 L 496 41 L 496 44 L 495 45 L 495 56 L 496 57 L 496 61 L 502 73 L 513 83 L 519 86 L 525 87 L 526 88 L 540 88 L 541 87 L 549 85 L 557 80 L 565 71 L 568 65 L 569 59 L 570 58 L 570 43 L 566 32 L 554 19 L 542 14 L 537 14 L 536 13 Z M 1344 9 L 1338 12 L 1336 12 L 1330 16 L 1322 25 L 1319 31 L 1318 38 L 1317 39 L 1317 47 L 1318 48 L 1318 52 L 1324 64 L 1332 72 L 1346 78 L 1359 78 L 1360 77 L 1366 76 L 1373 72 L 1380 65 L 1384 59 L 1386 54 L 1387 44 L 1388 43 L 1387 42 L 1387 35 L 1382 24 L 1375 16 L 1369 12 L 1365 11 L 1362 9 L 1356 9 L 1355 8 Z M 1346 14 L 1359 14 L 1367 17 L 1377 26 L 1381 34 L 1381 37 L 1382 38 L 1382 49 L 1381 50 L 1380 55 L 1377 60 L 1369 68 L 1363 71 L 1357 72 L 1356 73 L 1344 72 L 1336 68 L 1332 65 L 1327 59 L 1323 50 L 1323 37 L 1327 27 L 1335 19 L 1338 18 L 1340 16 L 1342 16 Z M 1339 23 L 1338 24 L 1338 62 L 1345 62 L 1345 48 L 1346 47 L 1352 47 L 1354 49 L 1357 56 L 1362 63 L 1363 62 L 1364 63 L 1370 63 L 1369 60 L 1360 47 L 1363 45 L 1368 39 L 1368 31 L 1367 29 L 1361 24 L 1357 24 L 1356 23 Z M 1345 30 L 1346 29 L 1348 30 L 1357 30 L 1360 32 L 1361 37 L 1356 41 L 1346 41 L 1345 40 Z" fill="rgb(8, 11, 122)" fill-rule="evenodd"/>
</svg>
