<svg xmlns="http://www.w3.org/2000/svg" viewBox="0 0 1048 749" width="1048" height="749" role="img" aria-label="Duralfoil logo">
  <title>Duralfoil logo</title>
  <path d="M 883 633 L 882 740 L 970 740 L 970 718 L 917 717 L 917 633 Z M 824 633 L 824 740 L 858 740 L 858 633 Z M 676 633 L 593 633 L 593 740 L 627 740 L 628 700 L 671 700 L 671 677 L 628 677 L 627 657 L 676 656 Z M 500 633 L 500 740 L 581 740 L 581 717 L 533 716 L 533 633 Z M 409 633 L 367 740 L 402 740 L 406 726 L 408 724 L 446 724 L 448 726 L 452 740 L 487 740 L 447 634 Z M 427 662 L 429 664 L 429 668 L 439 697 L 439 703 L 415 702 Z M 264 633 L 264 740 L 296 740 L 296 707 L 298 699 L 307 699 L 309 701 L 328 740 L 365 740 L 339 695 L 350 689 L 359 677 L 361 670 L 361 659 L 357 648 L 349 640 L 341 636 L 328 633 Z M 296 656 L 320 655 L 324 657 L 328 663 L 328 670 L 326 674 L 316 679 L 298 679 L 296 677 Z M 141 633 L 141 703 L 145 720 L 150 728 L 164 738 L 181 742 L 212 741 L 219 739 L 230 733 L 236 727 L 241 718 L 244 704 L 244 633 L 212 633 L 212 703 L 208 713 L 203 717 L 197 719 L 185 718 L 181 716 L 175 708 L 174 633 Z M 22 633 L 22 740 L 80 740 L 97 736 L 110 729 L 117 722 L 122 714 L 125 706 L 127 692 L 125 667 L 122 659 L 116 650 L 105 641 L 86 634 Z M 55 656 L 68 656 L 80 659 L 90 669 L 92 676 L 91 700 L 88 707 L 78 715 L 69 717 L 54 716 Z M 710 640 L 703 645 L 694 655 L 690 663 L 686 678 L 687 703 L 689 710 L 697 724 L 706 732 L 719 739 L 737 743 L 757 743 L 771 740 L 780 736 L 790 729 L 795 724 L 802 712 L 806 694 L 806 680 L 804 669 L 795 651 L 778 638 L 757 632 L 728 633 Z M 742 655 L 750 655 L 760 659 L 767 666 L 771 678 L 771 696 L 766 710 L 760 716 L 749 720 L 739 719 L 730 714 L 724 706 L 721 696 L 721 678 L 726 665 L 734 658 Z M 1001 597 L 993 601 L 986 608 L 982 615 L 980 629 L 983 640 L 989 648 L 999 654 L 1005 656 L 1018 656 L 1030 651 L 1037 644 L 1041 637 L 1041 616 L 1036 607 L 1025 598 L 1019 596 Z M 1015 598 L 1024 601 L 1035 611 L 1039 619 L 1040 628 L 1038 636 L 1032 645 L 1021 652 L 1011 654 L 1002 652 L 989 643 L 984 633 L 983 624 L 987 612 L 994 604 L 1004 599 Z M 998 608 L 998 644 L 1004 643 L 1005 628 L 1011 628 L 1016 634 L 1020 643 L 1027 644 L 1018 628 L 1022 626 L 1025 622 L 1024 612 L 1018 608 Z M 1004 613 L 1015 612 L 1020 616 L 1020 620 L 1016 624 L 1005 624 Z M 986 516 L 671 550 L 980 550 L 985 530 Z M 11 516 L 11 526 L 17 550 L 327 550 Z M 992 460 L 855 488 L 665 530 L 885 505 L 989 495 L 991 485 Z M 5 460 L 8 494 L 104 504 L 333 530 L 163 492 Z M 988 403 L 969 408 L 666 507 L 819 473 L 958 445 L 992 439 L 992 431 Z M 6 433 L 6 441 L 36 446 L 182 474 L 331 507 L 82 425 L 10 403 Z M 976 348 L 867 394 L 665 483 L 838 427 L 984 383 Z M 23 350 L 15 377 L 15 385 L 163 428 L 333 483 L 25 348 Z M 959 297 L 957 296 L 771 396 L 664 456 L 895 359 L 971 329 Z M 39 295 L 28 329 L 121 366 L 333 455 L 221 392 Z M 936 251 L 931 244 L 928 245 L 667 422 L 664 426 L 670 424 L 849 329 L 950 278 Z M 67 244 L 49 278 L 205 358 L 320 420 L 332 425 L 328 420 L 201 332 L 70 244 Z M 922 226 L 905 203 L 897 195 L 752 314 L 647 404 L 650 405 Z M 98 196 L 78 225 L 78 228 L 232 328 L 345 405 L 348 405 L 343 399 L 187 266 L 100 195 Z M 884 178 L 857 151 L 712 300 L 627 391 L 630 392 L 734 303 Z M 114 177 L 115 180 L 219 265 L 370 393 L 371 392 L 349 367 L 257 271 L 139 151 Z M 812 112 L 809 114 L 676 285 L 605 379 L 607 379 L 690 292 L 842 137 Z M 158 133 L 155 137 L 243 225 L 375 362 L 393 379 L 337 304 L 185 111 Z M 792 98 L 776 87 L 759 78 L 629 291 L 584 368 L 793 100 Z M 212 90 L 203 97 L 204 100 L 414 367 L 377 304 L 237 78 L 234 76 Z M 738 65 L 715 54 L 701 50 L 682 96 L 566 356 L 739 68 Z M 255 63 L 257 69 L 429 348 L 432 355 L 434 356 L 293 47 L 277 52 Z M 677 38 L 641 26 L 547 346 L 613 200 L 681 41 Z M 314 37 L 384 198 L 449 341 L 452 345 L 403 189 L 354 25 L 348 26 Z M 583 12 L 576 13 L 574 34 L 569 60 L 569 67 L 554 161 L 529 336 L 546 281 L 620 20 Z M 375 19 L 455 289 L 470 335 L 419 12 L 403 13 Z M 445 7 L 444 9 L 469 169 L 491 323 L 487 6 Z M 545 6 L 508 5 L 508 324 L 526 185 L 551 13 L 551 7 Z" fill="black" fill-rule="evenodd"/>
</svg>
