<svg xmlns="http://www.w3.org/2000/svg" width="659.501" height="296.389" viewBox="0 0 659.501 296.389">
  <defs>
    <style>
      .cls-1 {
        fill: #6bb345;
      }

      .cls-2 {
        fill: #56585b;
      }
    </style>
  </defs>
  <g id="Fletcher_Insualtion" data-name="Fletcher Insualtion" transform="translate(-445.986 -685.743)">
    <rect id="Rectangle_390" data-name="Rectangle 390" class="cls-1" width="659.186" height="12.128" transform="translate(445.986 834.864)"/>
    <rect id="Rectangle_391" data-name="Rectangle 391" class="cls-1" width="23.913" height="108.765" transform="translate(446.597 871.387)"/>
    <path id="Path_2444" data-name="Path 2444" class="cls-1" d="M472.542,719.692v10.967H473a24.832,24.832,0,0,1,10.658-9.974,30.79,30.79,0,0,1,13.409-3.128q8.678,0,14.242,2.362a21.108,21.108,0,0,1,8.751,6.551,25.276,25.276,0,0,1,4.5,10.2,63.843,63.843,0,0,1,1.3,13.335v48.436H504.226V753.961q0-9.745-3.047-14.544t-10.812-4.8q-8.839,0-12.8,5.261-3.956,5.246-3.96,17.282v41.282H451.978V719.692Z" transform="translate(34.223 181.708)"/>
    <path id="Path_2445" data-name="Path 2445" class="cls-1" d="M486.428,778.872a12.48,12.48,0,0,0,3.732,4.107,15.759,15.759,0,0,0,5.255,2.362,24.328,24.328,0,0,0,6.168.765,23.476,23.476,0,0,0,4.8-.53,15.963,15.963,0,0,0,4.57-1.678,10.445,10.445,0,0,0,3.429-3.047,8,8,0,0,0,1.369-4.8q0-4.873-6.477-7.315a130.324,130.324,0,0,0-18.047-4.866c-3.147-.712-6.228-1.551-9.221-2.517a31.456,31.456,0,0,1-7.993-3.805,18.587,18.587,0,0,1-5.637-5.933,16.871,16.871,0,0,1-2.134-8.772q0-7.611,2.973-12.49a21.916,21.916,0,0,1,7.846-7.691,34.428,34.428,0,0,1,10.973-3.959,67.151,67.151,0,0,1,12.49-1.148,62.4,62.4,0,0,1,12.409,1.221,32.871,32.871,0,0,1,10.738,4.107,24.817,24.817,0,0,1,7.846,7.7,25.827,25.827,0,0,1,3.731,12.114H514.683q-.453-6.252-4.718-8.456a21.579,21.579,0,0,0-10.054-2.209,38.735,38.735,0,0,0-3.96.228,13.369,13.369,0,0,0-3.886.987,7.964,7.964,0,0,0-2.973,2.214,5.818,5.818,0,0,0-1.215,3.886,5.924,5.924,0,0,0,2.127,4.718,16.442,16.442,0,0,0,5.564,2.966,70.214,70.214,0,0,0,7.846,2.06q4.409.916,8.986,1.98a92.335,92.335,0,0,1,9.215,2.59,30.386,30.386,0,0,1,7.993,4.034,19.475,19.475,0,0,1,5.638,6.248,18.3,18.3,0,0,1,2.134,9.221,23.91,23.91,0,0,1-11.275,21.47,33.271,33.271,0,0,1-11.5,4.5,67.934,67.934,0,0,1-13.181,1.289,65.208,65.208,0,0,1-13.4-1.369,35.179,35.179,0,0,1-11.658-4.564,26.107,26.107,0,0,1-8.383-8.463,26.435,26.435,0,0,1-3.577-13.174h20.564a11.845,11.845,0,0,0,1.45,6.02" transform="translate(105.255 181.702)"/>
    <path id="Path_2446" data-name="Path 2446" class="cls-1" d="M530.026,796.627V785.661h-.457a24.385,24.385,0,0,1-10.664,9.9,31.534,31.534,0,0,1-13.4,3.047q-8.688,0-14.248-2.289a20.515,20.515,0,0,1-8.752-6.476,25.323,25.323,0,0,1-4.5-10.2,63.748,63.748,0,0,1-1.289-13.329V717.876h21.624v44.477c0,6.5,1.013,11.342,3.047,14.55s5.637,4.792,10.812,4.792q8.839,0,12.8-5.255t3.96-17.282V717.876h21.631v78.752Z" transform="translate(175.517 183.524)"/>
    <rect id="Rectangle_392" data-name="Rectangle 392" class="cls-1" width="21.631" height="108.765" transform="translate(740.126 871.387)"/>
    <path id="Path_2447" data-name="Path 2447" class="cls-1" d="M500.865,731.274a26.02,26.02,0,0,1,8.53-8.074,37.33,37.33,0,0,1,11.664-4.342,65.893,65.893,0,0,1,13.014-1.3,87.53,87.53,0,0,1,12.033.852,36.778,36.778,0,0,1,11.121,3.262,22.056,22.056,0,0,1,8.228,6.792q3.2,4.329,3.208,11.5v40.973a81.7,81.7,0,0,0,.6,10.208,18.478,18.478,0,0,0,2.134,7.315h-21.94a31.833,31.833,0,0,1-1.517-7.624,28.247,28.247,0,0,1-12.188,7.469,48.91,48.91,0,0,1-14.322,2.135,38.437,38.437,0,0,1-10.5-1.376,24.183,24.183,0,0,1-8.537-4.262,19.92,19.92,0,0,1-5.711-7.308,24.767,24.767,0,0,1-2.054-10.517,22.964,22.964,0,0,1,2.356-11.04,19.8,19.8,0,0,1,6.1-6.94,27.482,27.482,0,0,1,8.53-3.885,92.346,92.346,0,0,1,9.678-2.054c3.242-.5,6.443-.906,9.584-1.215a57.221,57.221,0,0,0,8.382-1.368,14.608,14.608,0,0,0,5.792-2.672,5.831,5.831,0,0,0,1.98-5.094,11.442,11.442,0,0,0-1.148-5.564,8.412,8.412,0,0,0-3.04-3.2,11.975,11.975,0,0,0-4.423-1.517,35.858,35.858,0,0,0-5.4-.389q-6.4,0-10.06,2.745c-2.43,1.825-3.859,4.873-4.255,9.141H497.06a25.146,25.146,0,0,1,3.805-12.644M543.6,761.817a36.073,36.073,0,0,1-4.416,1.141q-2.366.454-4.953.759t-5.174.765a37.817,37.817,0,0,0-4.8,1.221,14.306,14.306,0,0,0-4.114,2.047,9.831,9.831,0,0,0-2.825,3.282,10.584,10.584,0,0,0-1.061,5.027,10.252,10.252,0,0,0,1.061,4.873,8.2,8.2,0,0,0,2.9,3.128,12.315,12.315,0,0,0,4.268,1.6,26.8,26.8,0,0,0,5.02.45c4.275,0,7.564-.705,9.906-2.127a14.113,14.113,0,0,0,5.174-5.094,16.513,16.513,0,0,0,2.061-6.026,41.045,41.045,0,0,0,.382-4.872v-8.074a9.826,9.826,0,0,1-3.429,1.906" transform="translate(277.79 181.697)"/>
    <path id="Path_2448" data-name="Path 2448" class="cls-1" d="M557.178,737.968v14.464H541.339v39c0,3.651.611,6.1,1.825,7.316s3.651,1.825,7.316,1.825c1.208,0,2.382-.047,3.5-.148a30.274,30.274,0,0,0,3.2-.463V816.72a53.226,53.226,0,0,1-6.094.611c-2.228.1-4.416.148-6.544.148a63.132,63.132,0,0,1-9.524-.685,22.421,22.421,0,0,1-7.926-2.658,14.084,14.084,0,0,1-5.4-5.644,20.071,20.071,0,0,1-1.98-9.59v-46.47h-13.1V737.968h13.1v-23.61h21.631v23.61Z" transform="translate(346.236 163.432)"/>
    <path id="Path_2449" data-name="Path 2449" class="cls-1" d="M515.33,713.4h21.631v17.825H515.33Zm21.624,108.764H515.323V743.417h21.631Z" transform="translate(396.01 157.983)"/>
    <path id="Path_2450" data-name="Path 2450" class="cls-1" d="M522.709,742.006a36.026,36.026,0,0,1,21.02-21.477,44.977,44.977,0,0,1,16.752-2.973,45.622,45.622,0,0,1,16.839,2.973,35.836,35.836,0,0,1,21.094,21.477,48.321,48.321,0,0,1,2.9,17.141,47.613,47.613,0,0,1-2.9,17.061,37,37,0,0,1-8.222,13.02,35.918,35.918,0,0,1-12.872,8.308,46.76,46.76,0,0,1-16.839,2.886,46.1,46.1,0,0,1-16.752-2.886,35.884,35.884,0,0,1-12.792-8.308,36.82,36.82,0,0,1-8.228-13.02,47.62,47.62,0,0,1-2.892-17.061,48.327,48.327,0,0,1,2.892-17.141m19.651,26.356a24.625,24.625,0,0,0,3.12,8.074,16.663,16.663,0,0,0,5.866,5.712,17.879,17.879,0,0,0,9.134,2.134,18.342,18.342,0,0,0,9.221-2.134,16.44,16.44,0,0,0,5.94-5.712,24.638,24.638,0,0,0,3.128-8.074,46.036,46.036,0,0,0,.913-9.215,47.064,47.064,0,0,0-.913-9.289,23.833,23.833,0,0,0-3.128-8.081,17.371,17.371,0,0,0-5.94-5.711,17.871,17.871,0,0,0-9.221-2.208,17.422,17.422,0,0,0-9.134,2.208,17.629,17.629,0,0,0-5.866,5.711,23.823,23.823,0,0,0-3.12,8.081,47.074,47.074,0,0,0-.913,9.289,46.045,46.045,0,0,0,.913,9.215" transform="translate(421.677 181.702)"/>
    <path id="Path_2452" data-name="Path 2452" class="cls-1" d="M553.7,719.692v10.967h.456a24.884,24.884,0,0,1,10.665-9.974,30.739,30.739,0,0,1,13.4-3.128q8.688,0,14.242,2.362a21.13,21.13,0,0,1,8.758,6.551,25.368,25.368,0,0,1,4.5,10.2,63.852,63.852,0,0,1,1.3,13.335v48.436H585.388V753.961q0-9.745-3.047-14.544t-10.812-4.8q-8.839,0-12.8,5.261-3.966,5.246-3.96,17.282v41.282H533.14V719.692Z" transform="translate(497.77 181.708)"/>
    <path id="Path_2453" data-name="Path 2453" class="cls-2" d="M535.486,685.743V708.79H474.05V737.6H527.3V758.89H474.05V810.4H446.09V685.743Z" transform="translate(0.595 0)"/>
    <rect id="Rectangle_393" data-name="Rectangle 393" class="cls-2" width="25.289" height="124.657" transform="translate(547.382 685.744)"/>
    <path id="Path_2455" data-name="Path 2455" class="cls-2" d="M498.156,761.557q5.7,5.426,16.383,5.422a22.9,22.9,0,0,0,13.181-3.758c3.678-2.5,5.933-5.155,6.772-7.947h22.255Q551.4,771.513,540.364,778.5t-26.711,6.98a53.529,53.529,0,0,1-19.59-3.4,40.612,40.612,0,0,1-14.779-9.691,43.432,43.432,0,0,1-9.356-15.014,53.992,53.992,0,0,1-3.288-19.2,51.636,51.636,0,0,1,3.382-18.859,44,44,0,0,1,9.617-15.1,45.067,45.067,0,0,1,14.866-10.034,48.431,48.431,0,0,1,19.147-3.671,44.526,44.526,0,0,1,20.477,4.456,40.591,40.591,0,0,1,14.336,11.953,48.862,48.862,0,0,1,8.1,17.114,62.769,62.769,0,0,1,1.785,20.074H491.928q.534,12.04,6.228,17.456m28.584-47.483q-4.54-4.882-13.805-4.892a22.368,22.368,0,0,0-10.054,2.013,19.084,19.084,0,0,0-6.416,4.974,18.1,18.1,0,0,0-3.383,6.288,26.938,26.938,0,0,0-1.154,5.933h41.134q-1.782-9.424-6.322-14.315" transform="translate(117.963 27.187)"/>
    <path id="Path_2456" data-name="Path 2456" class="cls-2" d="M539.85,713.9V730.48H521.327v44.7q0,6.292,2.141,8.383t8.55,2.094c1.429,0,2.785-.06,4.094-.174a36.571,36.571,0,0,0,3.738-.524v19.2a60.833,60.833,0,0,1-7.121.7c-2.61.121-5.167.174-7.657.174a75.163,75.163,0,0,1-11.128-.785,26.547,26.547,0,0,1-9.268-3.053,16.365,16.365,0,0,1-6.322-6.464q-2.305-4.188-2.309-10.993V730.48H480.73V713.9h15.315v-27.06h25.282V713.9Z" transform="translate(198.436 6.243)"/>
    <path id="Path_2458" data-name="Path 2458" class="cls-2" d="M537.227,709.188a18.009,18.009,0,0,0-10.154,2.711,21.68,21.68,0,0,0-6.678,6.973,29.971,29.971,0,0,0-3.651,9.429,50.319,50.319,0,0,0-1.067,10.215,48.283,48.283,0,0,0,1.067,9.96,30.281,30.281,0,0,0,3.476,9.161,19.756,19.756,0,0,0,6.5,6.725,18.215,18.215,0,0,0,9.973,2.61q9.07,0,13.98-4.973,4.893-4.973,6.141-13.356h24.4q-2.5,17.981-14.248,27.409t-30.094,9.43a51.305,51.305,0,0,1-18.966-3.4,41.984,41.984,0,0,1-14.691-9.517,43.11,43.11,0,0,1-9.443-14.577,49.7,49.7,0,0,1-3.382-18.6,59.148,59.148,0,0,1,3.114-19.463,43.663,43.663,0,0,1,9.174-15.544,41.937,41.937,0,0,1,14.778-10.208A51,51,0,0,1,537.4,690.5a58.644,58.644,0,0,1,15.765,2.1,42.592,42.592,0,0,1,13.53,6.37,34.459,34.459,0,0,1,9.711,10.651,33.514,33.514,0,0,1,4.269,15.1H555.925q-2.5-15.533-18.7-15.537" transform="translate(253.597 27.187)"/>
    <path id="Path_2459" data-name="Path 2459" class="cls-2" d="M530.8,685.743V732.71h.53a29.127,29.127,0,0,1,12.282-11.436,33.792,33.792,0,0,1,14.611-3.577q10.137,0,16.644,2.7a24.81,24.81,0,0,1,10.255,7.5,28.982,28.982,0,0,1,5.242,11.7,71.072,71.072,0,0,1,1.51,15.275V810.4H566.6v-50.98q0-11.174-3.57-16.678t-12.645-5.5q-10.329,0-14.953,6.027-4.641,6.021-4.631,19.813V810.4H505.513V685.743Z" transform="translate(339.982 0)"/>
    <path id="Path_2461" data-name="Path 2461" class="cls-2" d="M551.57,761.557q5.7,5.426,16.383,5.422a22.86,22.86,0,0,0,13.174-3.758c3.678-2.5,5.946-5.155,6.772-7.947h22.261q-5.346,16.238-16.389,23.222t-26.7,6.98a53.5,53.5,0,0,1-19.591-3.4,40.693,40.693,0,0,1-14.785-9.691,43.309,43.309,0,0,1-9.349-15.014,53.986,53.986,0,0,1-3.288-19.2,51.907,51.907,0,0,1,3.369-18.859,44.316,44.316,0,0,1,9.624-15.1,45.094,45.094,0,0,1,14.872-10.034,48.408,48.408,0,0,1,19.148-3.671,44.524,44.524,0,0,1,20.476,4.456,40.562,40.562,0,0,1,14.329,11.953,48.874,48.874,0,0,1,8.107,17.114,62.4,62.4,0,0,1,1.779,20.074H545.342q.533,12.04,6.228,17.456m28.584-47.483q-4.54-4.882-13.805-4.892a22.347,22.347,0,0,0-10.054,2.013,19.086,19.086,0,0,0-6.416,4.974,18.122,18.122,0,0,0-3.389,6.288,27.26,27.26,0,0,0-1.148,5.933h41.134q-1.792-9.424-6.322-14.315" transform="translate(423.031 27.187)"/>
    <path id="Path_2462" data-name="Path 2462" class="cls-2" d="M559.456,692.947v16.765h.349a30.411,30.411,0,0,1,4.812-7.772,31.245,31.245,0,0,1,6.953-6.107,34.458,34.458,0,0,1,8.369-3.933,30.862,30.862,0,0,1,9.255-1.4,20.311,20.311,0,0,1,5.524.872v23.047c-1.188-.228-2.618-.436-4.282-.611a45.951,45.951,0,0,0-4.805-.262,27.4,27.4,0,0,0-11.745,2.269,20.26,20.26,0,0,0-7.752,6.2,24.675,24.675,0,0,0-4.194,9.161A48.91,48.91,0,0,0,560.7,742.53v40.678H535.416V692.947Z" transform="translate(510.769 27.193)"/>
  </g>
</svg>
